<svg height="512" viewBox="0 0 512 512" width="512" xmlns="http://www.w3.org/2000/svg"><g><g><g><path d="m390.68 453.68a240.035 240.035 0 0 1 -333.36-333.36l106.68 106.68-47.653 47.654a24.013 24.013 0 0 0 -6.036 23.836 152.337 152.337 0 0 0 102.2 102.2 24.013 24.013 0 0 0 23.837-6.036l47.652-47.654z" fill="#898890"/><path d="m496 128a112.03 112.03 0 0 1 -166.44 97.9l-97.19 54.73 53.73-98.19a112.008 112.008 0 1 1 209.9-54.44z" fill="#83d8f4"/></g><g fill="#cca400"><circle cx="384" cy="128" r="16"/><circle cx="328" cy="128" r="16"/><circle cx="440" cy="128" r="16"/></g></g><g><path d="m396.34 448.02-106.68-106.68a8.015 8.015 0 0 0 -11.32 0l-47.65 47.66a15.994 15.994 0 0 1 -15.89 4.02 144.364 144.364 0 0 1 -96.82-96.81 16.006 16.006 0 0 1 4.02-15.9l47.66-47.65a8.015 8.015 0 0 0 0-11.32l-106.68-106.68a8.013 8.013 0 0 0 -12.28 1.17 248.034 248.034 0 0 0 344.47 344.47 8.013 8.013 0 0 0 1.17-12.28zm-140.34 38.98a232.054 232.054 0 0 1 -197.35-354.04l94.04 94.04-42 42a31.992 31.992 0 0 0 -8.05 31.78 160.363 160.363 0 0 0 107.58 107.58 31.992 31.992 0 0 0 31.78-8.05l42-42 94.04 94.04a230.809 230.809 0 0 1 -122.04 34.65z"/><path d="m384 8a120.038 120.038 0 0 0 -106.99 174.39l-51.66 94.4a8 8 0 0 0 10.95 10.81l93.37-52.58a120.009 120.009 0 1 0 54.33-227.02zm0 224a104.026 104.026 0 0 1 -50.54-13.09 8.023 8.023 0 0 0 -7.83.02l-72.82 41.01 40.31-73.66a8.006 8.006 0 0 0 -.03-7.74 104.01 104.01 0 1 1 90.91 53.46z"/><path d="m384 104a24 24 0 1 0 24 24 24.027 24.027 0 0 0 -24-24zm0 32a8 8 0 1 1 8-8 8.009 8.009 0 0 1 -8 8z"/><path d="m328 104a24 24 0 1 0 24 24 24.027 24.027 0 0 0 -24-24zm0 32a8 8 0 1 1 8-8 8.009 8.009 0 0 1 -8 8z"/><path d="m440 104a24 24 0 1 0 24 24 24.027 24.027 0 0 0 -24-24zm0 32a8 8 0 1 1 8-8 8.009 8.009 0 0 1 -8 8z"/></g></g></svg>