<svg id="Capa_1" enable-background="new 0 0 512.04 512.04" height="512" viewBox="0 0 512.04 512.04" width="512" xmlns="http://www.w3.org/2000/svg"><g><g><path d="m255.167 168.477s.138 54.725 5.633 86.827c1.48 8.644-5.144 16.541-13.913 16.541h-49.884s24.149-73.421 58.164-103.368z" fill="#7acaa6"/></g><g><path d="m246.884 271.85h-19.02c8.77 0 15.4-7.9 13.92-16.55-3.29-19.19-4.66-46.46-5.23-65.29 5.76-8.25 12-15.71 18.61-21.53 0 0 .14 54.72 5.64 86.82 1.48 8.65-5.15 16.55-13.92 16.55z" fill="#57be92"/></g><g><path d="m315.954 17.23v129.718c-53.433 11.037-82.37 65.822-82.37 65.822-37.93 57.48-37.5 188.85-34.67 253.87.255 5.847.53 11.157.798 15.828.688 11.979-8.83 22.072-20.829 22.072h-70.476c-8.491 0-16.092-5.165-19.334-13.012-3.41-8.255-6.205-16.578-8.469-24.888-22.91-84.05 8.54-166.88 8.54-166.88 19.55-56.2 23.57-88.53 23.57-88.53 1.58-13.01-4.51-24.2-10.83-32.03-8.35-10.33-12.9-23.24-12.69-36.52.83-50.59 11.77-92.86 19.36-116.33 3.81-11.77 15.09-19.48 27.45-18.81z" fill="#f9f3f1"/></g><g><path d="m315.954 17.23v129.72c-53.43 11.04-82.37 65.82-82.37 65.82-37.93 57.48-37.5 188.85-34.67 253.87.26 5.85.53 11.16.8 15.83.69 11.98-8.83 22.07-20.83 22.07h-7.08c5.15-4.05 8.32-10.48 7.91-17.58-.27-4.67-.54-9.98-.8-15.83-.53-12.15-.99-40.13-1.28-52.29-.97-39.77-.5-79.8 4.49-119.31 4.74-37.51 14.39-72.21 34.84-104.1 16.087-25.07 38.876-49.708 67.595-59.907 6.832-2.426 11.395-8.889 11.395-16.138v-103.235z" fill="#efe2dd"/></g><g><path d="m315.955 17.226 22.157 1.128c7.427.378 13.256 6.511 13.256 13.948v97.11c0 7.129-5.369 13.114-12.457 13.884l-22.957 3.653z" fill="#7acaa6"/></g><g><path d="m351.364 32.3v97.11c0 7.13-5.36 13.11-12.45 13.89l-13.81 2.19c5.09-2.36 8.56-7.51 8.56-13.4v-102.61c0-4.72-2.22-8.94-5.69-11.64l10.14.51c7.43.38 13.25 6.51 13.25 13.95z" fill="#57be92"/></g><g><path d="m273.178 42.467h-124.263c-4.44 0-8.365 2.869-9.702 7.103-4.383 13.879-13.35 45.859-13.535 75.709-.038 6.073 5.172 10.85 11.214 10.233l137.32-14.022c5.193-.53 9.143-4.904 9.143-10.124v-58.722c-.001-5.621-4.557-10.177-10.177-10.177z" fill="#cdbfba"/></g><g><path d="m283.354 52.64v58.73c0 5.22-3.95 9.59-9.14 10.12l-15.4 1.57c2.76-2 4.54-5.25 4.54-8.88v-63.14c0-3.47-1.61-6.56-4.13-8.57h13.95c5.62 0 10.18 4.55 10.18 10.17z" fill="#b9acac"/></g><g><g><circle cx="178.75" cy="83.703" fill="#7acaa6" r="16.396"/></g><g><circle cx="239.353" cy="83.703" fill="#7acaa6" r="16.396"/></g></g><g><g><path d="m195.144 83.7c0 9.06-7.34 16.4-16.39 16.4-6.86 0-12.73-4.21-15.17-10.18.88.15 1.79.23 2.72.23 9.06 0 16.4-7.34 16.4-16.4 0-2.2-.43-4.3-1.22-6.21 7.75 1.3 13.66 8.04 13.66 16.16z" fill="#57be92"/></g><g><path d="m255.744 83.7c0 9.06-7.34 16.4-16.39 16.4-6.86 0-12.73-4.21-15.17-10.18.88.15 1.79.23 2.72.23 9.06 0 16.4-7.34 16.4-16.4 0-2.2-.43-4.3-1.22-6.21 7.75 1.3 13.66 8.04 13.66 16.16z" fill="#57be92"/></g></g><g><path d="m178.883 504.54h-70.476c-8.491 0-16.092-5.165-19.334-13.012-3.41-8.255-6.205-16.578-8.469-24.888h118.31c.255 5.847.53 11.157.798 15.828.688 11.979-8.83 22.072-20.829 22.072z" fill="#7acaa6"/></g><g><path d="m178.884 504.54h-7.08c5.15-4.05 8.32-10.48 7.91-17.58-.27-4.67-.54-9.98-.8-15.83-.06-1.32-.11-2.83-.17-4.49h20.17c.26 5.85.53 11.16.8 15.83.69 11.98-8.83 22.07-20.83 22.07z" fill="#57be92"/></g><g><path d="m205.462 395.288c.078-4.142-3.216-7.562-7.357-7.64-4.114-.076-7.562 3.216-7.64 7.357-.391 20.682-.171 42.222.645 64.135h-104.687c-19.186-78.723 9.436-155.933 9.733-156.718.025-.065.049-.132.072-.198 19.586-56.303 23.761-88.716 23.932-90.09 1.536-12.643-2.766-25.661-12.442-37.649-7.29-9.018-11.205-20.271-11.024-31.682.833-50.782 12.26-93.313 18.997-114.144 2.756-8.511 10.946-14.114 19.911-13.63l29.554 1.592c4.139.219 7.67-2.95 7.893-7.086s-2.95-7.669-7.086-7.893l-29.553-1.591c-15.75-.847-30.142 9.012-34.992 23.992-8.544 26.419-18.901 68.426-19.723 118.519-.236 14.922 4.863 29.608 14.354 41.349 7.168 8.881 10.271 17.769 9.224 26.389-.04.317-4.208 32.342-23.179 86.903-1.793 4.762-31.812 86.708-8.725 171.409.612 2.247 3.347 11.156 4.086 13.318 1.446 4.235 3.01 8.4 4.688 12.461 4.429 10.721 14.739 17.648 26.266 17.648h70.476c7.77 0 15.286-3.24 20.62-8.889 4.772-5.054 7.512-11.741 7.722-18.649 0-.836.023-1.626-.025-2.463-1.653-28.701-2.282-57.982-1.74-86.75zm-16.866 97.565c-2.549 2.7-5.999 4.187-9.713 4.187h-70.476c-5.432 0-10.301-3.288-12.403-8.375-1.97-4.768-3.724-9.628-5.313-14.524h101.065c.007.134.438 8.225.468 8.759.214 3.714-1.074 7.249-3.628 9.953z"/><path d="m338.494 10.864-137.996-7.362c-4.142-.223-7.669 2.95-7.893 7.086-.223 4.136 2.95 7.67 7.086 7.893l108.763 5.857v116.69c-50.813 13.715-78.594 62.871-81.32 67.901-19.41 29.625-31.3 80.338-35.346 150.747-.237 4.135 2.922 7.68 7.058 7.918.146.008.292.012.437.012 3.945 0 7.251-3.081 7.481-7.07 1.796-31.267 5.126-58.367 9.951-81.19h30.171c6.383 0 12.403-2.797 16.517-7.674 4.125-4.89 5.87-11.317 4.789-17.632-3.409-19.917-4.717-49.185-5.217-67.811 12.978-13.338 31.289-27.102 54.372-31.906l22.579-3.593c10.813-1.278 18.942-10.406 18.942-21.317v-97.11c0-11.441-8.949-20.858-20.374-21.439zm-86.557 251.136c-.739.875-2.377 2.345-5.05 2.345h-26.627c5.205-19.703 11.74-35.558 19.584-47.444.134-.203.258-.413.372-.628.087-.164 2.928-5.442 8.34-12.892.766 17.262 2.192 37.655 4.851 53.188.457 2.667-.725 4.548-1.47 5.431zm91.931-132.589c0 3.307-2.479 6.07-5.767 6.428-.123.013-14.647 2.321-14.647 2.321l.001-113.043 14.276.727c3.441.175 6.137 3.012 6.137 6.458z"/><path d="m132.061 47.311c-5.104 16.165-13.696 47.783-13.883 77.921-.031 5.035 2.084 9.861 5.805 13.241 3.262 2.964 7.514 4.59 11.884 4.59.594 0 1.191-.03 1.788-.091l137.319-14.022c9.054-.925 15.881-8.484 15.881-17.585v-58.722c0-9.747-7.93-17.676-17.676-17.676h-124.264c-7.749 0-14.522 4.961-16.854 12.344zm143.793 5.332v58.723c0 1.378-1.034 2.522-2.404 2.662l-137.319 14.022c-1.035.107-1.732-.379-2.06-.678-.336-.306-.899-.978-.893-2.047.182-29.219 9.283-61.133 13.187-73.497.352-1.113 1.376-1.861 2.55-1.861h124.263c1.476 0 2.676 1.201 2.676 2.676z"/><path d="m178.75 107.598c13.176 0 23.896-10.72 23.896-23.896s-10.72-23.896-23.896-23.896-23.896 10.72-23.896 23.896 10.72 23.896 23.896 23.896zm0-32.791c4.905 0 8.896 3.991 8.896 8.896s-3.991 8.896-8.896 8.896-8.896-3.991-8.896-8.896 3.991-8.896 8.896-8.896z"/><path d="m239.353 107.598c13.176 0 23.895-10.72 23.895-23.896s-10.72-23.896-23.895-23.896-23.896 10.72-23.896 23.896 10.72 23.896 23.896 23.896zm0-32.791c4.905 0 8.896 3.991 8.896 8.896s-3.991 8.896-8.896 8.896-8.896-3.991-8.896-8.896 3.991-8.896 8.896-8.896z"/><path d="m421.301 26.89c-3.207-2.623-7.932-2.147-10.554 1.058-2.623 3.207-2.149 7.932 1.058 10.554 13.064 10.684 20.557 26.478 20.557 43.332 0 16.508-7.241 32.093-19.866 42.758-3.164 2.673-3.563 7.405-.89 10.569 1.484 1.756 3.601 2.66 5.733 2.66 1.709 0 3.428-.581 4.836-1.771 16.006-13.521 25.186-33.283 25.186-54.217.001-21.373-9.498-41.399-26.06-54.943z"/><path d="m405.678 57.985c-3.207-2.621-7.931-2.148-10.554 1.059-2.622 3.207-2.148 7.932 1.059 10.554 3.627 2.966 5.708 7.351 5.708 12.029 0 4.582-2.011 8.908-5.516 11.87-3.164 2.673-3.563 7.405-.89 10.569 1.484 1.756 3.601 2.66 5.733 2.66 1.709 0 3.428-.581 4.836-1.771 6.887-5.817 10.836-14.32 10.836-23.329 0-9.197-4.087-17.815-11.212-23.641z"/></g></g></svg>